<svg width="24" height="24" viewBox="0 0 24 24" fill="none" xmlns="http://www.w3.org/2000/svg">
<path d="M3.7041 14.2041L11.2041 6.70414C11.3086 6.59926 11.4328 6.51605 11.5696 6.45927C11.7063 6.40248 11.8529 6.37325 12.001 6.37325C12.149 6.37325 12.2957 6.40248 12.4324 6.45927C12.5691 6.51605 12.6933 6.59926 12.7979 6.70414L20.2979 14.2041C20.5092 14.4155 20.6279 14.7021 20.6279 15.001C20.6279 15.2999 20.5092 15.5865 20.2979 15.7979C20.0865 16.0092 19.7999 16.128 19.501 16.128C19.2021 16.128 18.9154 16.0092 18.7041 15.7979L12 9.09383L5.29598 15.7988C5.08463 16.0102 4.79799 16.1289 4.4991 16.1289C4.20022 16.1289 3.91357 16.0102 3.70223 15.7988C3.49088 15.5875 3.37215 15.3008 3.37215 15.002C3.37215 14.7031 3.49088 14.4164 3.70223 14.2051L3.7041 14.2041Z" fill="#94A3B8"/>
</svg>
